<svg width="1600" height="900" viewBox="0 0 1600 900" fill="none" xmlns="http://www.w3.org/2000/svg">
  <rect width="800" height="900" fill="#334155"/>
  <rect x="800" width="800" height="900" fill="#2563EB"/>
  <rect x="120" y="180" width="560" height="540" rx="30" fill="#475569"/>
  <rect x="860" y="180" width="620" height="540" rx="30" fill="#3B82F6"/>
  <rect x="180" y="560" width="80" height="120" rx="12" fill="#94A3B8"/>
  <rect x="290" y="500" width="80" height="180" rx="12" fill="#94A3B8"/>
  <rect x="400" y="430" width="80" height="250" rx="12" fill="#94A3B8"/>
  <rect x="510" y="350" width="80" height="330" rx="12" fill="#94A3B8"/>
  <circle cx="1060" cy="490" r="130" fill="#93C5FD"/>
  <path d="M1085 375L1245 520L1085 665L1015 610L1088 520L1015 430L1085 375Z" fill="#FDE68A"/>
  <circle cx="1295" cy="360" r="34" fill="#BFDBFE"/>
  <circle cx="1345" cy="430" r="20" fill="#DBEAFE"/>
  <circle cx="1280" cy="460" r="16" fill="#DBEAFE"/>
</svg>
