<svg width="1600" height="900" viewBox="0 0 1600 900" fill="none" xmlns="http://www.w3.org/2000/svg" font-family="Georgia, 'Times New Roman', 'Iowan Old Style', serif">
  <defs>
    <radialGradient id="plate" cx="50%" cy="40%" r="78%">
      <stop offset="0" stop-color="#fbf4e2"/>
      <stop offset="0.62" stop-color="#f1e6cf"/>
      <stop offset="1" stop-color="#e6d6b3"/>
    </radialGradient>
  </defs>

  <rect width="1600" height="900" fill="url(#plate)"/>

  <g stroke="#d9c9a6" stroke-width="1.5" opacity="0.55">
    <line x1="468" y1="186" x2="468" y2="724"/>
    <line x1="1132" y1="186" x2="1132" y2="724"/>
  </g>

  <g stroke="#c8b694" stroke-width="2">
    <line x1="-40" y1="150" x2="1640" y2="150" stroke-dasharray="7 5"/>
    <line x1="-40" y1="160" x2="1640" y2="160" stroke-dasharray="7 5" opacity="0.5"/>
  </g>
  <text x="800" y="118" text-anchor="middle" font-size="25" letter-spacing="9" fill="#6f5f4f">ANDRAS HEJJ &#183; FIELD NOTES</text>

  <g>
    <circle cx="668" cy="430" r="96" fill="#fbf4e2" stroke="#1b1713" stroke-width="5"/>
    <rect x="632" y="394" width="72" height="72" rx="6" fill="none" stroke="#1b1713" stroke-width="5"/>
    <circle cx="932" cy="430" r="96" fill="#fbf4e2" stroke="#1b1713" stroke-width="5"/>
    <g fill="none" stroke="#bf4024" stroke-width="3.5">
      <ellipse cx="932" cy="430" rx="13" ry="48" transform="rotate(0 932 430)"/>
      <ellipse cx="932" cy="430" rx="13" ry="48" transform="rotate(45 932 430)"/>
      <ellipse cx="932" cy="430" rx="13" ry="48" transform="rotate(90 932 430)"/>
      <ellipse cx="932" cy="430" rx="13" ry="48" transform="rotate(135 932 430)"/>
    </g>
    <circle cx="932" cy="430" r="11" fill="#bf4024"/>
    <g stroke="#c8b694" stroke-width="2" stroke-dasharray="5 7">
      <line x1="800" y1="356" x2="800" y2="504"/>
    </g>
  </g>

  <line x1="-40" y1="748" x2="1640" y2="748" stroke="#c8b694" stroke-width="2"/>
  <text x="256" y="794" text-anchor="start" font-size="22" letter-spacing="5" fill="#6f5f4f">ON CAREERS</text>
  <text x="1344" y="800" text-anchor="end" font-style="italic" font-size="42" fill="#bf4024">&#8470;&#8201;05</text>
</svg>
