<svg width="1600" height="900" viewBox="0 0 1600 900" fill="none" xmlns="http://www.w3.org/2000/svg" font-family="Georgia, 'Times New Roman', 'Iowan Old Style', serif">
  <defs>
    <radialGradient id="plate" cx="50%" cy="40%" r="78%">
      <stop offset="0" stop-color="#fbf4e2"/>
      <stop offset="0.62" stop-color="#f1e6cf"/>
      <stop offset="1" stop-color="#e6d6b3"/>
    </radialGradient>
  </defs>

  <rect width="1600" height="900" fill="url(#plate)"/>

  <g stroke="#d9c9a6" stroke-width="1.5" opacity="0.55">
    <line x1="468" y1="186" x2="468" y2="724"/>
    <line x1="1132" y1="186" x2="1132" y2="724"/>
  </g>

  <g stroke="#c8b694" stroke-width="2">
    <line x1="-40" y1="150" x2="1640" y2="150" stroke-dasharray="7 5"/>
    <line x1="-40" y1="160" x2="1640" y2="160" stroke-dasharray="7 5" opacity="0.5"/>
  </g>
  <text x="800" y="118" text-anchor="middle" font-size="25" letter-spacing="9" fill="#6f5f4f">ANDRAS HEJJ &#183; FIELD NOTES</text>

  <g>
    <rect x="549" y="398" width="58" height="84" rx="10" fill="#bf4024"/>
    <path d="M561 440 L573 454 L596 424" fill="none" stroke="#f1e6cf" stroke-width="7" stroke-linecap="round" stroke-linejoin="round"/>
    <rect x="623" y="398" width="58" height="84" rx="10" fill="#fbf4e2" stroke="#1b1713" stroke-width="3"/>
    <rect x="697" y="398" width="58" height="84" rx="10" fill="#fbf4e2" stroke="#1b1713" stroke-width="3"/>
    <rect x="771" y="398" width="58" height="84" rx="10" fill="#fbf4e2" stroke="#1b1713" stroke-width="3"/>
    <rect x="845" y="398" width="58" height="84" rx="10" fill="#fbf4e2" stroke="#1b1713" stroke-width="3"/>
    <rect x="919" y="398" width="58" height="84" rx="10" fill="#fbf4e2" stroke="#1b1713" stroke-width="3"/>
    <rect x="993" y="398" width="58" height="84" rx="10" fill="#fbf4e2" stroke="#1b1713" stroke-width="3"/>
    <text x="578" y="372" text-anchor="middle" font-size="22" fill="#6f5f4f">M</text>
    <text x="652" y="372" text-anchor="middle" font-size="22" fill="#6f5f4f">T</text>
    <text x="726" y="372" text-anchor="middle" font-size="22" fill="#6f5f4f">W</text>
    <text x="800" y="372" text-anchor="middle" font-size="22" fill="#6f5f4f">T</text>
    <text x="874" y="372" text-anchor="middle" font-size="22" fill="#6f5f4f">F</text>
    <text x="948" y="372" text-anchor="middle" font-size="22" fill="#6f5f4f">S</text>
    <text x="1022" y="372" text-anchor="middle" font-size="22" fill="#6f5f4f">S</text>
    <path d="M560 556 L660 540 L760 546 L860 516 L960 498 L1052 462" fill="none" stroke="#0e4140" stroke-width="3" stroke-linecap="round" stroke-linejoin="round"/>
    <g fill="#bf4024">
      <circle cx="560" cy="556" r="5"/><circle cx="760" cy="546" r="5"/><circle cx="960" cy="498" r="5"/>
    </g>
    <path d="M1052 462 L1036 466 M1052 462 L1046 478" stroke="#0e4140" stroke-width="3" stroke-linecap="round"/>
  </g>

  <line x1="-40" y1="748" x2="1640" y2="748" stroke="#c8b694" stroke-width="2"/>
  <text x="256" y="794" text-anchor="start" font-size="22" letter-spacing="5" fill="#6f5f4f">EARLY MOMENTUM</text>
  <text x="1344" y="800" text-anchor="end" font-style="italic" font-size="42" fill="#bf4024">&#8470;&#8201;02</text>
</svg>
