<svg width="1600" height="900" viewBox="0 0 1600 900" fill="none" xmlns="http://www.w3.org/2000/svg" font-family="Georgia, 'Times New Roman', 'Iowan Old Style', serif">
  <defs>
    <radialGradient id="plate" cx="50%" cy="40%" r="78%">
      <stop offset="0" stop-color="#fbf4e2"/>
      <stop offset="0.62" stop-color="#f1e6cf"/>
      <stop offset="1" stop-color="#e6d6b3"/>
    </radialGradient>
  </defs>

  <rect width="1600" height="900" fill="url(#plate)"/>

  <g stroke="#d9c9a6" stroke-width="1.5" opacity="0.55">
    <line x1="468" y1="186" x2="468" y2="724"/>
    <line x1="1132" y1="186" x2="1132" y2="724"/>
  </g>

  <g stroke="#c8b694" stroke-width="2">
    <line x1="-40" y1="150" x2="1640" y2="150" stroke-dasharray="7 5"/>
    <line x1="-40" y1="160" x2="1640" y2="160" stroke-dasharray="7 5" opacity="0.5"/>
  </g>
  <text x="800" y="118" text-anchor="middle" font-size="25" letter-spacing="9" fill="#6f5f4f">ANDRAS HEJJ &#183; FIELD NOTES</text>

  <g>
    <path d="M556 612 L724 372 L812 470 L900 360 L1044 612 Z" fill="#0e4140" opacity="0.14"/>
    <path d="M556 612 L724 372 L812 470 L900 360 L1044 612" fill="none" stroke="#1b1713" stroke-width="4" stroke-linejoin="round"/>
    <path d="M872 398 L900 360 L928 398 Q900 382 872 398 Z" fill="#fbf4e2" stroke="#1b1713" stroke-width="2"/>
    <path d="M700 408 L724 372 L748 408 Q724 392 700 408 Z" fill="#fbf4e2" stroke="#1b1713" stroke-width="2"/>
    <g stroke="#1b1713" stroke-width="2" opacity="0.30">
      <line x1="918" y1="402" x2="962" y2="468"/>
      <line x1="938" y1="430" x2="978" y2="490"/>
      <line x1="958" y1="458" x2="994" y2="512"/>
    </g>
    <line x1="900" y1="360" x2="900" y2="292" stroke="#1b1713" stroke-width="5" stroke-linecap="round"/>
    <path d="M900 296 L962 312 L900 332 Z" fill="#bf4024"/>
    <line x1="560" y1="612" x2="1040" y2="612" stroke="#1b1713" stroke-width="3"/>
  </g>

  <line x1="-40" y1="748" x2="1640" y2="748" stroke="#c8b694" stroke-width="2"/>
  <text x="256" y="794" text-anchor="start" font-size="22" letter-spacing="5" fill="#6f5f4f">THE VENTURE</text>
  <text x="1344" y="800" text-anchor="end" font-style="italic" font-size="42" fill="#bf4024">&#8470;&#8201;04</text>
</svg>
