<svg width="1600" height="900" viewBox="0 0 1600 900" fill="none" xmlns="http://www.w3.org/2000/svg" font-family="Georgia, 'Times New Roman', 'Iowan Old Style', serif">
  <defs>
    <radialGradient id="plate" cx="50%" cy="40%" r="78%">
      <stop offset="0" stop-color="#fbf4e2"/>
      <stop offset="0.62" stop-color="#f1e6cf"/>
      <stop offset="1" stop-color="#e6d6b3"/>
    </radialGradient>
  </defs>

  <rect width="1600" height="900" fill="url(#plate)"/>

  <g stroke="#d9c9a6" stroke-width="1.5" opacity="0.55">
    <line x1="468" y1="186" x2="468" y2="724"/>
    <line x1="1132" y1="186" x2="1132" y2="724"/>
  </g>

  <g stroke="#c8b694" stroke-width="2">
    <line x1="-40" y1="150" x2="1640" y2="150" stroke-dasharray="7 5"/>
    <line x1="-40" y1="160" x2="1640" y2="160" stroke-dasharray="7 5" opacity="0.5"/>
  </g>
  <text x="800" y="118" text-anchor="middle" font-size="25" letter-spacing="9" fill="#6f5f4f">ANDRAS HEJJ &#183; FIELD NOTES</text>

  <g>
    <path d="M580 612 C700 600 640 506 752 478 C856 452 800 372 916 356 C956 350 980 346 1000 342" fill="none" stroke="#1b1713" stroke-width="7" stroke-linecap="round" stroke-dasharray="1 22"/>
    <circle cx="580" cy="612" r="11" fill="#bf4024" stroke="#1b1713" stroke-width="3"/>
    <circle cx="752" cy="478" r="7" fill="#bf4024"/>
    <line x1="1000" y1="342" x2="1000" y2="272" stroke="#1b1713" stroke-width="6" stroke-linecap="round"/>
    <path d="M1000 276 L1060 292 L1000 308 Z" fill="#bf4024"/>
    <circle cx="1000" cy="342" r="6" fill="#1b1713"/>
  </g>

  <line x1="-40" y1="748" x2="1640" y2="748" stroke="#c8b694" stroke-width="2"/>
  <text x="256" y="794" text-anchor="start" font-size="22" letter-spacing="5" fill="#6f5f4f">GO TO MARKET</text>
  <text x="1344" y="800" text-anchor="end" font-style="italic" font-size="42" fill="#bf4024">&#8470;&#8201;07</text>
</svg>
