<svg width="1600" height="900" viewBox="0 0 1600 900" fill="none" xmlns="http://www.w3.org/2000/svg">
  <defs>
    <linearGradient id="g7" x1="120" y1="70" x2="1530" y2="860" gradientUnits="userSpaceOnUse">
      <stop stop-color="#5EEAD4"/>
      <stop offset="1" stop-color="#0F172A"/>
    </linearGradient>
  </defs>
  <rect width="1600" height="900" fill="url(#g7)"/>
  <rect x="220" y="170" width="1160" height="540" rx="30" fill="#0F172A" fill-opacity="0.72"/>
  <rect x="300" y="250" width="1000" height="360" rx="20" fill="#ECFEFF"/>
  <rect x="300" y="610" width="1000" height="46" rx="12" fill="#134E4A"/>
  <rect x="360" y="310" width="420" height="28" rx="10" fill="#99F6E4"/>
  <rect x="360" y="360" width="320" height="24" rx="8" fill="#5EEAD4"/>
  <rect x="360" y="404" width="370" height="24" rx="8" fill="#2DD4BF"/>
  <rect x="360" y="470" width="180" height="70" rx="10" fill="#0D9488"/>
  <rect x="860" y="318" width="370" height="220" rx="16" fill="#CCFBF1"/>
  <path d="M930 430L1020 360L1100 412L1180 346" stroke="#0F766E" stroke-width="14" stroke-linecap="round" stroke-linejoin="round"/>
  <circle cx="930" cy="430" r="10" fill="#0F766E"/>
  <circle cx="1020" cy="360" r="10" fill="#0F766E"/>
  <circle cx="1100" cy="412" r="10" fill="#0F766E"/>
  <circle cx="1180" cy="346" r="10" fill="#0F766E"/>
</svg>
