<svg width="1600" height="900" viewBox="0 0 1600 900" fill="none" xmlns="http://www.w3.org/2000/svg" font-family="Georgia, 'Times New Roman', 'Iowan Old Style', serif">
  <defs>
    <radialGradient id="plate" cx="50%" cy="40%" r="78%">
      <stop offset="0" stop-color="#fbf4e2"/>
      <stop offset="0.62" stop-color="#f1e6cf"/>
      <stop offset="1" stop-color="#e6d6b3"/>
    </radialGradient>
  </defs>

  <rect width="1600" height="900" fill="url(#plate)"/>

  <g stroke="#d9c9a6" stroke-width="1.5" opacity="0.55">
    <line x1="468" y1="186" x2="468" y2="724"/>
    <line x1="1132" y1="186" x2="1132" y2="724"/>
  </g>

  <g stroke="#c8b694" stroke-width="2">
    <line x1="-40" y1="150" x2="1640" y2="150" stroke-dasharray="7 5"/>
    <line x1="-40" y1="160" x2="1640" y2="160" stroke-dasharray="7 5" opacity="0.5"/>
  </g>
  <text x="800" y="118" text-anchor="middle" font-size="25" letter-spacing="9" fill="#6f5f4f">ANDRAS HEJJ &#183; FIELD NOTES</text>

  <g>
    <path d="M540 600 Q680 524 820 562 Q940 594 1060 544 L1060 616 L540 616 Z" fill="#1b1713" opacity="0.10"/>
    <path d="M540 616 Q700 566 860 598 Q980 624 1060 590 L1060 640 L540 640 Z" fill="#0e4140" opacity="0.16"/>
    <path d="M540 616 Q700 566 860 598 Q980 624 1060 590" fill="none" stroke="#0e4140" stroke-width="2.5" opacity="0.4"/>
    <g stroke="#bf4024" stroke-width="4" stroke-linecap="round">
    <line x1="886.0" y1="410.0" x2="924.0" y2="410.0"/>
    <line x1="874.5" y1="453.0" x2="907.4" y2="472.0"/>
    <line x1="843.0" y1="484.5" x2="862.0" y2="517.4"/>
    <line x1="800.0" y1="496.0" x2="800.0" y2="534.0"/>
    <line x1="757.0" y1="484.5" x2="738.0" y2="517.4"/>
    <line x1="725.5" y1="453.0" x2="692.6" y2="472.0"/>
    <line x1="714.0" y1="410.0" x2="676.0" y2="410.0"/>
    <line x1="725.5" y1="367.0" x2="692.6" y2="348.0"/>
    <line x1="757.0" y1="335.5" x2="738.0" y2="302.6"/>
    <line x1="800.0" y1="324.0" x2="800.0" y2="286.0"/>
    <line x1="843.0" y1="335.5" x2="862.0" y2="302.6"/>
    <line x1="874.5" y1="367.0" x2="907.4" y2="348.0"/>
    </g>
    <circle cx="800" cy="410" r="70" fill="#fbf4e2" stroke="#bf4024" stroke-width="5"/>
    <path d="M752 410 Q800 392 848 410" fill="none" stroke="#bf4024" stroke-width="3" opacity="0.6"/>
  </g>

  <line x1="-40" y1="748" x2="1640" y2="748" stroke="#c8b694" stroke-width="2"/>
  <text x="256" y="794" text-anchor="start" font-size="22" letter-spacing="5" fill="#6f5f4f">TURN OF THE YEAR</text>
  <text x="1344" y="800" text-anchor="end" font-style="italic" font-size="42" fill="#bf4024">&#8470;&#8201;01</text>
</svg>
