<svg width="1600" height="900" viewBox="0 0 1600 900" fill="none" xmlns="http://www.w3.org/2000/svg">
  <defs>
    <linearGradient id="objBg" x1="100" y1="60" x2="1510" y2="860" gradientUnits="userSpaceOnUse">
      <stop stop-color="#FDE68A"/>
      <stop offset="0.45" stop-color="#C084FC"/>
      <stop offset="1" stop-color="#0EA5E9"/>
    </linearGradient>
  </defs>
  <rect width="1600" height="900" fill="url(#objBg)"/>
  <path d="M0 640C180 600 320 610 510 670C710 735 910 760 1110 700C1280 650 1410 590 1600 615V900H0V640Z" fill="#0F766E" fill-opacity="0.3"/>
  <path d="M0 730C230 685 420 725 640 790C860 855 1120 830 1320 760C1450 715 1520 700 1600 710V900H0V730Z" fill="#082F49" fill-opacity="0.38"/>
  <rect x="150" y="140" width="520" height="620" rx="28" fill="#FFF7ED" fill-opacity="0.92"/>
  <rect x="205" y="215" width="410" height="20" rx="10" fill="#D6D3D1"/>
  <rect x="205" y="255" width="350" height="16" rx="8" fill="#E7E5E4"/>
  <rect x="205" y="290" width="385" height="16" rx="8" fill="#E7E5E4"/>
  <rect x="205" y="325" width="330" height="16" rx="8" fill="#E7E5E4"/>
  <rect x="205" y="360" width="370" height="16" rx="8" fill="#E7E5E4"/>
  <rect x="205" y="430" width="410" height="250" rx="20" fill="#EDE9FE"/>
  <path d="M880 655C930 590 975 540 1025 465C1095 360 1175 275 1285 248C1352 231 1415 245 1470 278" stroke="#FEF3C7" stroke-width="20" stroke-linecap="round"/>
  <path d="M930 680C985 607 1037 555 1088 478C1160 369 1235 300 1336 275C1386 263 1433 268 1480 292" stroke="#0F172A" stroke-opacity="0.2" stroke-width="8" stroke-linecap="round"/>
  <path d="M760 585C820 560 880 520 934 454C995 380 1040 318 1120 280" stroke="#F59E0B" stroke-width="16" stroke-linecap="round"/>
  <circle cx="860" cy="520" r="28" fill="#FDE68A"/>
  <circle cx="935" cy="438" r="22" fill="#C084FC"/>
  <circle cx="1018" cy="356" r="18" fill="#38BDF8"/>
  <rect x="1085" y="540" width="250" height="120" rx="18" fill="#111827" fill-opacity="0.8"/>
  <rect x="1135" y="575" width="150" height="18" rx="9" fill="#A78BFA"/>
  <rect x="1135" y="610" width="110" height="14" rx="7" fill="#E9D5FF"/>
  <circle cx="855" cy="245" r="52" fill="#FEF3C7" fill-opacity="0.9"/>
</svg>
