<svg width="1600" height="900" viewBox="0 0 1600 900" fill="none" xmlns="http://www.w3.org/2000/svg" font-family="Georgia, 'Times New Roman', 'Iowan Old Style', serif">
  <defs>
    <radialGradient id="plate" cx="50%" cy="40%" r="78%">
      <stop offset="0" stop-color="#fbf4e2"/>
      <stop offset="0.62" stop-color="#f1e6cf"/>
      <stop offset="1" stop-color="#e6d6b3"/>
    </radialGradient>
  </defs>

  <rect width="1600" height="900" fill="url(#plate)"/>

  <g stroke="#d9c9a6" stroke-width="1.5" opacity="0.55">
    <line x1="468" y1="186" x2="468" y2="724"/>
    <line x1="1132" y1="186" x2="1132" y2="724"/>
  </g>

  <g stroke="#c8b694" stroke-width="2">
    <line x1="-40" y1="150" x2="1640" y2="150" stroke-dasharray="7 5"/>
    <line x1="-40" y1="160" x2="1640" y2="160" stroke-dasharray="7 5" opacity="0.5"/>
  </g>
  <text x="800" y="118" text-anchor="middle" font-size="25" letter-spacing="9" fill="#6f5f4f">ANDRAS HEJJ &#183; FIELD NOTES</text>

  <g>
    <line x1="636" y1="600" x2="964" y2="600" stroke="#1b1713" stroke-width="2.5" opacity="0.45" stroke-dasharray="3 12"/>
    <ellipse cx="800" cy="600" rx="18" ry="12" fill="#bf4024"/>
    <path d="M800 600 C802 548 796 506 800 462" fill="none" stroke="#0e4140" stroke-width="8" stroke-linecap="round"/>
    <path d="M800 514 C760 480 716 472 686 484 C700 526 752 542 800 522 Z" fill="#1b5f5c" stroke="#0e4140" stroke-width="3"/>
    <path d="M800 514 C840 480 884 472 914 484 C900 526 848 542 800 522 Z" fill="#1b5f5c" stroke="#0e4140" stroke-width="3"/>
    <path d="M798 518 L706 496" stroke="#f1e6cf" stroke-width="2.5" opacity="0.65"/>
    <path d="M802 518 L894 496" stroke="#f1e6cf" stroke-width="2.5" opacity="0.65"/>
    <circle cx="800" cy="452" r="40" fill="none" stroke="#1b1713" stroke-width="2.5" stroke-dasharray="4 9" opacity="0.5"/>
    <circle cx="800" cy="452" r="13" fill="#bf4024"/>
  </g>

  <line x1="-40" y1="748" x2="1640" y2="748" stroke="#c8b694" stroke-width="2"/>
  <text x="256" y="794" text-anchor="start" font-size="22" letter-spacing="5" fill="#6f5f4f">ON CRAFT</text>
  <text x="1344" y="800" text-anchor="end" font-style="italic" font-size="42" fill="#bf4024">&#8470;&#8201;08</text>
</svg>
