<svg width="1600" height="900" viewBox="0 0 1600 900" fill="none" xmlns="http://www.w3.org/2000/svg">
  <defs>
    <linearGradient id="bg" x1="0" y1="0" x2="1600" y2="900" gradientUnits="userSpaceOnUse">
      <stop stop-color="#0F172A"/>
      <stop offset="1" stop-color="#1E3A8A"/>
    </linearGradient>
    <linearGradient id="wave" x1="0" y1="450" x2="1600" y2="450" gradientUnits="userSpaceOnUse">
      <stop stop-color="#38BDF8" stop-opacity="0.2"/>
      <stop offset="0.5" stop-color="#38BDF8"/>
      <stop offset="1" stop-color="#38BDF8" stop-opacity="0.2"/>
    </linearGradient>
  </defs>

  <rect width="1600" height="900" fill="url(#bg)"/>

  <g stroke="#1E40AF" stroke-width="1" opacity="0.35">
    <line x1="0" y1="150" x2="1600" y2="150"/>
    <line x1="0" y1="300" x2="1600" y2="300"/>
    <line x1="0" y1="450" x2="1600" y2="450"/>
    <line x1="0" y1="600" x2="1600" y2="600"/>
    <line x1="0" y1="750" x2="1600" y2="750"/>
    <line x1="200" y1="0" x2="200" y2="900"/>
    <line x1="400" y1="0" x2="400" y2="900"/>
    <line x1="600" y1="0" x2="600" y2="900"/>
    <line x1="800" y1="0" x2="800" y2="900"/>
    <line x1="1000" y1="0" x2="1000" y2="900"/>
    <line x1="1200" y1="0" x2="1200" y2="900"/>
    <line x1="1400" y1="0" x2="1400" y2="900"/>
  </g>

  <path d="M 0 450
           Q 100 300, 200 450
           T 400 450
           T 600 450
           T 800 450
           T 1000 450
           T 1200 450
           T 1400 450
           T 1600 450"
        stroke="url(#wave)" stroke-width="5" fill="none" opacity="0.5"/>

  <path d="M 0 450
           Q 50 250, 100 450
           Q 150 650, 200 450
           Q 250 200, 300 450
           Q 350 700, 400 450
           Q 450 300, 500 450
           Q 550 600, 600 450
           Q 650 350, 700 450
           Q 750 550, 800 450
           Q 850 250, 900 450
           Q 950 650, 1000 450
           Q 1050 300, 1100 450
           Q 1150 600, 1200 450
           Q 1250 350, 1300 450
           Q 1350 550, 1400 450
           Q 1450 250, 1500 450
           Q 1550 650, 1600 450"
        stroke="#60A5FA" stroke-width="4" fill="none" opacity="0.85"/>

  <g fill="#FBBF24">
    <circle cx="180" cy="720" r="8"/>
    <rect x="220" y="715" width="36" height="10" rx="2"/>
    <circle cx="290" cy="720" r="8"/>
    <circle cx="320" cy="720" r="8"/>
    <rect x="360" y="715" width="36" height="10" rx="2"/>
    <rect x="420" y="715" width="36" height="10" rx="2"/>
    <circle cx="490" cy="720" r="8"/>
    <rect x="520" y="715" width="36" height="10" rx="2"/>
    <circle cx="590" cy="720" r="8"/>
    <circle cx="620" cy="720" r="8"/>
    <circle cx="650" cy="720" r="8"/>
    <rect x="690" y="715" width="36" height="10" rx="2"/>
    <circle cx="760" cy="720" r="8"/>
    <rect x="800" y="715" width="36" height="10" rx="2"/>
    <rect x="860" y="715" width="36" height="10" rx="2"/>
    <circle cx="930" cy="720" r="8"/>
    <circle cx="960" cy="720" r="8"/>
    <rect x="1000" y="715" width="36" height="10" rx="2"/>
    <circle cx="1070" cy="720" r="8"/>
    <circle cx="1100" cy="720" r="8"/>
    <rect x="1140" y="715" width="36" height="10" rx="2"/>
    <circle cx="1210" cy="720" r="8"/>
    <rect x="1250" y="715" width="36" height="10" rx="2"/>
    <circle cx="1320" cy="720" r="8"/>
    <circle cx="1350" cy="720" r="8"/>
    <circle cx="1380" cy="720" r="8"/>
  </g>

  <g transform="translate(1280, 140)" opacity="0.9">
    <rect x="58" y="140" width="4" height="140" fill="#94A3B8"/>
    <path d="M 60 140 L 20 280 L 100 280 Z" fill="none" stroke="#94A3B8" stroke-width="3"/>
    <line x1="30" y1="220" x2="90" y2="220" stroke="#94A3B8" stroke-width="2"/>
    <line x1="40" y1="180" x2="80" y2="180" stroke="#94A3B8" stroke-width="2"/>
    <circle cx="60" cy="130" r="6" fill="#FBBF24"/>
    <path d="M 60 130 A 40 40 0 0 1 100 90" stroke="#FBBF24" stroke-width="2" fill="none" opacity="0.7"/>
    <path d="M 60 130 A 70 70 0 0 1 130 60" stroke="#FBBF24" stroke-width="2" fill="none" opacity="0.5"/>
    <path d="M 60 130 A 100 100 0 0 1 160 30" stroke="#FBBF24" stroke-width="2" fill="none" opacity="0.3"/>
    <path d="M 60 130 A 40 40 0 0 0 20 90" stroke="#FBBF24" stroke-width="2" fill="none" opacity="0.7"/>
    <path d="M 60 130 A 70 70 0 0 0 -10 60" stroke="#FBBF24" stroke-width="2" fill="none" opacity="0.5"/>
  </g>

  <g font-family="monospace" font-size="22" fill="#93C5FD" opacity="0.55">
    <text x="120" y="820">01001000</text>
    <text x="340" y="820">00110010</text>
    <text x="560" y="820">11010011</text>
    <text x="780" y="820">01100001</text>
    <text x="1000" y="820">10110100</text>
    <text x="1220" y="820">00101110</text>
  </g>

  <g font-family="Georgia, serif" fill="#E0F2FE">
    <text x="140" y="220" font-size="38" opacity="0.8">H(X) = &#8722;&#8721; p(x) log p(x)</text>
  </g>
</svg>
