<svg width="1600" height="900" viewBox="0 0 1600 900" fill="none" xmlns="http://www.w3.org/2000/svg">
  <defs>
    <linearGradient id="boardBg" x1="120" y1="70" x2="1520" y2="860" gradientUnits="userSpaceOnUse">
      <stop stop-color="#67E8F9"/>
      <stop offset="0.55" stop-color="#2563EB"/>
      <stop offset="1" stop-color="#111827"/>
    </linearGradient>
  </defs>
  <rect width="1600" height="900" fill="url(#boardBg)"/>
  <rect x="120" y="120" width="1360" height="660" rx="34" fill="#0F172A" fill-opacity="0.78"/>
  <rect x="180" y="180" width="760" height="540" rx="24" fill="#E0F2FE"/>
  <rect x="980" y="180" width="440" height="540" rx="24" fill="#111827"/>
  <path d="M560 240C646 300 734 450 734 450C734 450 646 600 560 660C474 600 386 450 386 450C386 450 474 300 560 240Z" fill="#BAE6FD" stroke="#0369A1" stroke-width="12"/>
  <path d="M560 264C631 316 706 450 706 450C706 450 631 584 560 636C489 584 414 450 414 450C414 450 489 316 560 264Z" stroke="#0EA5E9" stroke-width="8" stroke-dasharray="14 14"/>
  <line x1="230" y1="250" x2="890" y2="250" stroke="#7DD3FC" stroke-opacity="0.5"/>
  <line x1="230" y1="650" x2="890" y2="650" stroke="#7DD3FC" stroke-opacity="0.5"/>
  <line x1="230" y1="450" x2="890" y2="450" stroke="#0284C7" stroke-opacity="0.6"/>
  <line x1="560" y1="210" x2="560" y2="690" stroke="#0284C7" stroke-opacity="0.6"/>
  <rect x="1035" y="240" width="330" height="96" rx="18" fill="#1F2937"/>
  <rect x="1082" y="274" width="86" height="28" rx="10" fill="#22D3EE"/>
  <rect x="1190" y="274" width="126" height="28" rx="10" fill="#E0F2FE"/>
  <rect x="1035" y="364" width="330" height="96" rx="18" fill="#1F2937"/>
  <rect x="1082" y="398" width="86" height="28" rx="10" fill="#22C55E"/>
  <rect x="1190" y="398" width="126" height="28" rx="10" fill="#DCFCE7"/>
  <rect x="1035" y="488" width="330" height="96" rx="18" fill="#1F2937"/>
  <rect x="1082" y="522" width="86" height="28" rx="10" fill="#F59E0B"/>
  <rect x="1190" y="522" width="126" height="28" rx="10" fill="#FEF3C7"/>
  <path d="M1115 272L1134 292L1167 258" stroke="#082F49" stroke-width="8" stroke-linecap="round" stroke-linejoin="round"/>
  <path d="M1115 396L1134 416L1167 382" stroke="#052E16" stroke-width="8" stroke-linecap="round" stroke-linejoin="round"/>
  <path d="M1115 520L1134 540L1167 506" stroke="#451A03" stroke-width="8" stroke-linecap="round" stroke-linejoin="round"/>
</svg>
