<svg width="1600" height="900" viewBox="0 0 1600 900" fill="none" xmlns="http://www.w3.org/2000/svg" font-family="Georgia, 'Times New Roman', 'Iowan Old Style', serif">
  <defs>
    <radialGradient id="plate" cx="50%" cy="40%" r="78%">
      <stop offset="0" stop-color="#fbf4e2"/>
      <stop offset="0.62" stop-color="#f1e6cf"/>
      <stop offset="1" stop-color="#e6d6b3"/>
    </radialGradient>
  </defs>

  <rect width="1600" height="900" fill="url(#plate)"/>

  <g stroke="#d9c9a6" stroke-width="1.5" opacity="0.55">
    <line x1="468" y1="186" x2="468" y2="724"/>
    <line x1="1132" y1="186" x2="1132" y2="724"/>
  </g>

  <g stroke="#c8b694" stroke-width="2">
    <line x1="-40" y1="150" x2="1640" y2="150" stroke-dasharray="7 5"/>
    <line x1="-40" y1="160" x2="1640" y2="160" stroke-dasharray="7 5" opacity="0.5"/>
  </g>
  <text x="800" y="118" text-anchor="middle" font-size="25" letter-spacing="9" fill="#6f5f4f">ANDRAS HEJJ &#183; FIELD NOTES</text>

  <g transform="rotate(-20 800 444)">
    <path d="M800 256 C826 322 848 392 846 448 C844 524 824 602 800 640 C776 602 756 524 754 448 C752 392 774 322 800 256 Z" fill="#fbf4e2" stroke="#1b1713" stroke-width="5"/>
    <line x1="800" y1="264" x2="800" y2="632" stroke="#1b1713" stroke-width="2.5"/>
    <path d="M772 372 Q800 382 828 372" fill="none" stroke="#1b1713" stroke-width="2" opacity="0.35"/>
    <path d="M768 520 Q800 530 832 520" fill="none" stroke="#1b1713" stroke-width="2" opacity="0.35"/>
    <path d="M790 610 L810 610 C808 642 800 662 788 672 C788 648 786 626 786 612 Z" fill="#bf4024"/>
  </g>

  <line x1="-40" y1="748" x2="1640" y2="748" stroke="#c8b694" stroke-width="2"/>
  <text x="256" y="794" text-anchor="start" font-size="22" letter-spacing="5" fill="#6f5f4f">THE BOARD PROJECT</text>
  <text x="1344" y="800" text-anchor="end" font-style="italic" font-size="42" fill="#bf4024">&#8470;&#8201;09</text>
</svg>
